<?xml version="1.0" encoding="UTF-8" standalone="no"?>
<!-- Created with Inkscape (http://www.inkscape.org/) -->

<svg
   width="1024.0px"
   height="1024.0px"
   viewBox="0 0 1024.0 1024.0"
   version="1.1"
   id="SVGRoot"
   sodipodi:docname="TTT_Board.svg"
   inkscape:version="1.2.2 (732a01da63, 2022-12-09, custom)"
   xmlns:inkscape="http://www.inkscape.org/namespaces/inkscape"
   xmlns:sodipodi="http://sodipodi.sourceforge.net/DTD/sodipodi-0.dtd"
   xmlns="http://www.w3.org/2000/svg"
   xmlns:svg="http://www.w3.org/2000/svg">
  <sodipodi:namedview
     id="namedview1780"
     pagecolor="#ffffff"
     bordercolor="#666666"
     borderopacity="1.0"
     inkscape:showpageshadow="2"
     inkscape:pageopacity="0.0"
     inkscape:pagecheckerboard="0"
     inkscape:deskcolor="#d1d1d1"
     inkscape:document-units="px"
     showgrid="true"
     inkscape:zoom="0.70199214"
     inkscape:cx="397.44035"
     inkscape:cy="435.90231"
     inkscape:window-width="1920"
     inkscape:window-height="967"
     inkscape:window-x="0"
     inkscape:window-y="0"
     inkscape:window-maximized="1"
     inkscape:current-layer="layer1">
    <inkscape:grid
       type="xygrid"
       id="grid2266" />
  </sodipodi:namedview>
  <defs
     id="defs1775" />
  <g
     inkscape:label="Layer 1"
     inkscape:groupmode="layer"
     id="layer1">
    <rect
       style="fill:#00ff00"
       id="rect3633"
       width="995.79327"
       height="54.649162"
       x="9.7768631"
       y="365.61685" />
    <rect
       style="fill:#00ff00"
       id="rect3635"
       width="961.47131"
       height="50.893108"
       x="20.894775"
       y="653.65314" />
    <rect
       style="fill:#00ff00"
       id="rect3645"
       width="99.259926"
       height="860.93713"
       x="267.72025"
       y="85.782654" />
    <rect
       style="fill:#00ff00"
       id="rect3649"
       width="137.76085"
       height="853.336"
       x="612.68158"
       y="89.299431" />
    <path
       style="fill:#0000ff;stroke-width:1.42452"
       d="M 268.52152,825.50781 V 704.42384 H 145.30077 22.080019 V 679.49478 654.56573 H 145.30077 268.52152 V 537.04305 419.52036 H 139.6027 10.68388 V 393.16679 366.81322 H 139.6027 268.52152 V 226.49826 86.183301 h 49.14585 49.14585 V 226.49826 366.81322 H 490.03397 613.25473 V 228.63504 90.456853 h 68.37683 68.37683 V 228.63504 366.81322 H 877.5027 1004.997 v 26.35357 26.35357 H 877.5027 750.00839 v 117.52269 117.52268 h 116.09817 116.09816 v 24.92905 24.92906 H 866.10656 750.00839 v 118.9472 118.9472 H 681.63156 613.25473 V 823.37104 704.42384 H 490.03397 366.81322 V 825.50781 946.59179 H 317.66737 268.52152 Z M 613.25473,537.04305 V 419.52036 H 490.03397 366.81322 v 117.52269 117.52268 h 123.22075 123.22076 z"
       id="path3722" />
    <path
       style="fill:#00ffff;stroke-width:1.42452"
       d="M 268.52152,825.50781 V 704.42384 H 145.30077 22.080019 V 679.49478 654.56573 H 145.30077 268.52152 V 537.04305 419.52036 H 139.6027 10.68388 V 393.16679 366.81322 H 139.6027 268.52152 V 226.49826 86.183301 h 49.14585 49.14585 V 226.49826 366.81322 H 490.03397 613.25473 V 228.63504 90.456853 h 68.37683 68.37683 V 228.63504 366.81322 H 877.5027 1004.997 v 26.35357 26.35357 H 877.5027 750.00839 v 117.52269 117.52268 h 116.09817 116.09816 v 24.92905 24.92906 H 866.10656 750.00839 v 118.9472 118.9472 H 681.63156 613.25473 V 823.37104 704.42384 H 490.03397 366.81322 V 825.50781 946.59179 H 317.66737 268.52152 Z M 613.25473,537.04305 V 419.52036 H 490.03397 366.81322 v 117.52269 117.52268 h 123.22075 123.22076 z"
       id="path3862" />
  </g>
</svg>
